<svg xmlns="http://www.w3.org/2000/svg" width="241" height="38"><g fill="#fff"><path d="M9.512 1.02v28.044h11.4v7.917H0V1.02zM22.954 19a18.554 18.554 0 015.677-13.51 19.113 19.113 0 016.381-4.034 23.623 23.623 0 0116.33 0 19.332 19.332 0 016.43 4.034 18.745 18.745 0 010 27.02 19.319 19.319 0 01-6.43 4.034 23.622 23.622 0 01-16.33 0 19.1 19.1 0 01-6.381-4.034A18.554 18.554 0 0122.954 19zm9.948 0a9.442 9.442 0 00.825 3.962 9.994 9.994 0 002.233 3.151 10.1 10.1 0 003.275 2.076 10.944 10.944 0 007.91 0 10.406 10.406 0 003.3-2.076 9.837 9.837 0 002.256-3.151 9.925 9.925 0 000-7.924 9.85 9.85 0 00-2.256-3.151 10.424 10.424 0 00-3.3-2.077 10.945 10.945 0 00-7.91 0 10.117 10.117 0 00-3.275 2.077 10.008 10.008 0 00-2.233 3.151A9.448 9.448 0 0032.902 19zM72.943 1.02l8.832 21.891 8.88-21.891h10.337L85.56 36.981h-7.57L62.606 1.02zM125.307 8.937H114v6.01h10.676v7.917H114v6.2h11.307v7.917h-20.818V1.02h20.818zM130.146 19a18.546 18.546 0 015.678-13.51 19.112 19.112 0 016.381-4.034 23.623 23.623 0 0116.33 0 19.333 19.333 0 016.43 4.034 18.745 18.745 0 010 27.02 19.32 19.32 0 01-6.43 4.034 23.622 23.622 0 01-16.33 0 19.1 19.1 0 01-6.381-4.034A18.546 18.546 0 01130.146 19zm9.948 0a9.441 9.441 0 00.825 3.962 9.99 9.99 0 002.232 3.151 10.1 10.1 0 003.276 2.076 10.942 10.942 0 007.909 0 10.4 10.4 0 003.3-2.076 9.847 9.847 0 002.253-3.151 9.926 9.926 0 000-7.924 9.86 9.86 0 00-2.256-3.151 10.418 10.418 0 00-3.3-2.077 10.943 10.943 0 00-7.909 0 10.113 10.113 0 00-3.276 2.077 10 10 0 00-2.232 3.151 9.446 9.446 0 00-.822 3.962zM175.973 36.981V1.02h9.512l17.567 21.987V1.02h9.459v35.961h-9.46l-17.567-21.987v21.987zM241 8.937h-11.307v6.01h10.676v7.917h-10.676v6.2H241v7.917h-20.818V1.02H241z"/></g></svg>