<svg xmlns="http://www.w3.org/2000/svg" width="100" height="16"><g fill="#1a1311"><path d="M3.942.423v11.818h4.726v3.337H0V.423zM9.513 8a7.811 7.811 0 015-7.387 9.646 9.646 0 016.768 0 7.993 7.993 0 012.665 1.7 7.77 7.77 0 011.74 2.543 8.247 8.247 0 010 6.292 7.77 7.77 0 01-1.74 2.543 7.99 7.99 0 01-2.665 1.7 9.646 9.646 0 01-6.768 0 7.838 7.838 0 01-5-7.387zm4.123 0a4.029 4.029 0 00.342 1.668 4.174 4.174 0 002.283 2.2 4.388 4.388 0 004.646-.874 4.141 4.141 0 00.935-1.327 4.24 4.24 0 000-3.336 4.147 4.147 0 00-.935-1.327 4.309 4.309 0 00-1.368-.874 4.469 4.469 0 00-3.278 0 4.176 4.176 0 00-2.283 2.2A4.032 4.032 0 0013.636 8zM30.268.423l3.66 9.226 3.68-9.226h4.284l-6.4 15.155h-3.137L25.98.423zM51.989 3.759h-4.686v2.533h4.422v3.336H47.3v2.613h4.686v3.337h-8.628V.423h8.628zM54.016 8a7.811 7.811 0 015-7.387 9.646 9.646 0 016.768 0 7.994 7.994 0 012.665 1.7 7.774 7.774 0 011.74 2.543 8.247 8.247 0 010 6.292 7.774 7.774 0 01-1.74 2.543 7.99 7.99 0 01-2.665 1.7 9.646 9.646 0 01-6.768 0 7.837 7.837 0 01-5-7.387zm4.123 0a4.029 4.029 0 00.342 1.668 4.171 4.171 0 002.283 2.2 4.468 4.468 0 003.278 0 4.3 4.3 0 001.368-.874 4.145 4.145 0 00.935-1.327 4.241 4.241 0 000-3.336 4.151 4.151 0 00-.935-1.327 4.307 4.307 0 00-1.368-.874 4.468 4.468 0 00-3.278 0 4.173 4.173 0 00-2.283 2.2A4.032 4.032 0 0058.139 8zM73.05 15.578V.423h3.938l7.28 9.266V.423h3.922v15.155h-3.922l-7.28-9.266v9.266zM100 3.759h-4.686v2.533h4.425v3.336h-4.425v2.613H100v3.337h-8.628V.423H100z"/></g></svg>